<svg width="70" height="70" viewBox="0 0 70 70" fill="none" xmlns="http://www.w3.org/2000/svg">
<path d="M69.9997 25.7322C69.9817 21.3048 68.3498 17.0167 65.375 13.5751C66.3853 9.64144 66.0695 5.51088 64.4736 1.75065C64.1589 1.02681 63.5138 0.473401 62.717 0.241933C61.5886 -0.120003 57.3189 -0.798601 48.619 4.47969V4.48074C44.8765 3.55594 41.0171 3.11932 37.1476 3.18351C33.2724 3.11828 29.4064 3.55489 25.6592 4.48074C16.7335 -0.91867 12.093 -0.044398 11.159 0.212281C10.3577 0.453211 9.71374 1.01819 9.40241 1.75044C7.802 5.498 7.47495 9.61698 8.46845 13.5455C5.39567 16.9691 3.7583 21.3216 3.86044 25.7921C3.86044 42.4743 14.0584 47.5117 23.4037 49.2918C22.9237 50.3901 22.5933 51.5401 22.4214 52.7153C22.4045 52.8405 22.4045 52.9678 22.4214 53.093V57.7076C13.9148 58.3714 12.0939 53.7106 11.9164 53.1824V53.1835C11.8748 53.0604 11.8265 52.9394 11.7703 52.8205C10.1272 49.6833 7.23534 47.2727 3.71431 46.1091C2.23753 45.6473 0.639224 46.3932 0.146083 47.7757C-0.347288 49.1581 0.449534 50.6543 1.92631 51.1171C3.87735 51.7767 5.50489 53.0792 6.50268 54.7814C7.63106 58.205 12.2391 63.62 22.3888 63.0161V67.3603C22.3888 68.8185 23.6509 70 25.2086 70C26.7652 70 28.0284 68.8185 28.0284 67.3603V53.2885C28.242 51.7514 28.9568 50.3142 30.0739 49.1706C30.8741 48.4699 31.1641 47.3978 30.8179 46.4247C30.4717 45.4525 29.5513 44.7571 28.4634 44.6456C18.6351 43.5745 9.5485 40.5435 9.5485 25.6866H9.54738C9.41588 22.0611 10.9118 18.5492 13.672 16.0031C14.4206 15.2498 14.6678 14.1735 14.3171 13.1982C13.3675 10.6164 13.3057 7.82091 14.1396 5.20429C17.5987 5.93549 20.8479 7.36109 23.6612 9.38226C24.3939 9.83571 25.3077 9.9525 26.1427 9.69894C29.7233 8.6784 33.4546 8.20495 37.1961 8.2965C40.9306 8.20497 44.6576 8.67842 48.2325 9.69894C49.0675 9.9546 49.9823 9.83782 50.714 9.38226C53.4237 7.43796 56.5255 6.02712 59.8331 5.23392C60.6546 7.87995 60.5816 10.6985 59.6229 13.3035C59.3026 14.1884 59.5116 15.1668 60.1713 15.8675C62.8383 18.5335 64.3489 22.0348 64.4085 25.6867C64.4085 40.513 54.8544 43.5904 45.4936 44.6457C44.3462 44.7656 43.3942 45.5305 43.0953 46.5742C42.7963 47.6179 43.211 48.7258 44.1405 49.3675C45.1396 50.0766 46.2995 52.0671 46.2995 55.4001V67.3458C46.2995 68.804 47.5616 69.9855 49.1182 69.9855C50.6759 69.9855 51.938 68.804 51.938 67.3458V55.4001C51.9672 53.2991 51.557 51.2138 50.7298 49.2611C58.3024 47.7534 70 43.0927 70 25.7321L69.9997 25.7322Z" fill="#DB1818"/>
</svg>
